:FULLY-SPECIFIED
:FORCE-ALL-JOINTS-BE-3DOF
:DEGREES
747
root 4.28415 16.9702 14.1401 -163.113 -6.33468 -171.313
lfemur -34.4047 3.38525 -16.3679
ltibia 48.1887 -0 0
lfoot -29.1976 7.2502 -0.370503
ltoes 5.58292 -0 0
rfemur -27.9837 -32.88 13.0444
rtibia 104.456 -0 0
rfoot 14.6146 2.82451 0.0560181
rtoes 16.693 -0 0
lowerback 2.85264 6.3742 -2.6531
upperback -1.22936 8.33864 -1.64013
thorax -2.97954 4.18194 -0.674106
lowerneck -6.36674 -8.6618 -1.60284
upperneck -2.15791 -11.6452 5.97683
head 0.86497 -5.83915 1.78619
lclavicle 0 0 0
lhumerus -52.9869 -5.11261 77.6235
lradius 48.4837 -0 0
lwrist 14.5196 0 0
lhand -29.2227 -4.34729 0.00204256
lfingers 0 0 0
lthumb -2.56672 25.6099 0.00193691
rclavicle 0 0 0
rhumerus 22.1577 42.7765 -70.4259
rradius 96.0954 -0 0
rwrist 0.35218 0 0
rhand -18.6636 -19.072 0.0901171
rfingers 0 0 0
rthumb 7.62947 -48.8927 0.0880387
748
root 4.28014 16.9112 14.1942 -163.05 -5.04435 -171.358
lfemur -35.2471 4.26718 -17.1597
ltibia 49.7665 -0 0
lfoot -30.8068 8.35133 -0.103864
ltoes 5.05637 -0 0
rfemur -28.1058 -33.0545 14.0987
rtibia 103.406 -0 0
rfoot 13.7662 2.50177 0.0157243
rtoes 16.1062 -0 0
lowerback 2.97505 6.3075 -2.88659
upperback -1.15419 8.23436 -1.67296
thorax -3.00224 4.13377 -0.589146
lowerneck -6.27823 -8.7169 -1.63122
upperneck -2.18315 -11.7212 6.1484
head 0.857728 -5.87802 1.8447
lclavicle 0 0 0
lhumerus -52.6326 -4.55637 79.1081
lradius 48.4616 -0 0
lwrist 14.106 0 0
lhand -29.5975 -4.37405 0.000573514
lfingers 0 0 0
lthumb -2.92874 25.5836 0.00054385
rclavicle 0 0 0
rhumerus 20.6719 44.2454 -72.3842
rradius 96.376 -0 0
rwrist 0.807447 0 0
rhand -18.0122 -18.3962 0.0252952
rfingers 0 0 0
rthumb 8.2585 -48.2088 0.024712
749
root 4.0667 16.455 14.8619 -163.028 -4.57838 -171.374
lfemur -35.5546 4.58278 -17.4491
ltibia 50.3363 0 0
lfoot -31.3866 8.74706 0
ltoes 4.86623 0 0
rfemur -28.1509 -33.1171 14.4801
rtibia 103.027 0 0
rfoot 13.4599 2.38537 0
rtoes 15.8943 0 0
lowerback 3.01931 6.28353 -2.97093
upperback -1.12704 8.19672 -1.68484
thorax -3.01046 4.11638 -0.558462
lowerneck -6.24625 -8.73679 -1.64149
upperneck -2.19233 -11.7486 6.21038
head 0.855103 -5.89205 1.86583
lclavicle 3.33958e-14 1.11319e-14 0
lhumerus -52.5012 -4.35778 79.6448
lradius 48.4536 0 0
lwrist 13.9566 0 0
lhand -29.7329 -4.38371 0
lfingers 7.12502 0 0
lthumb -3.05947 25.5741 0
rclavicle 3.33958e-14 1.11319e-14 0
rhumerus 20.1089 44.7665 -73.1165
rradius 96.4773 0 0
rwrist 0.971849 0 0
rhand -17.7771 -18.1523 0
rfingers 7.12502 0 0
rthumb 8.48546 -47.962 0
750
root 4.00627 16.3439 15.0368 -163.057 -2.55092 -171.327
lfemur -36.0195 5.72688 -17.8841
ltibia 51.0178 -0 0
lfoot -31.4891 9.24819 -0.00692522
ltoes 5.46036 -0 0
rfemur -27.764 -33.0391 15.0325
rtibia 101.685 -0 0
rfoot 13.3679 1.60229 0.00973349
rtoes 16.2534 -0 0
lowerback 3.04333 6.21866 -3.03275
upperback -1.09954 8.11287 -1.82382
thorax -2.98339 4.07774 -0.66176
lowerneck -6.17768 -8.74413 -1.67035
upperneck -2.1281 -11.7431 6.18219
head 0.863661 -5.88035 1.86366
lclavicle 0 0 0
lhumerus -52.35 -4.75411 80.3817
lradius 49.485 -0 0
lwrist 13.8897 0 0
lhand -29.6619 -4.62777 -0.00233598
lfingers 0 0 0
lthumb -2.99086 25.3308 -0.00224852
rclavicle 0 0 0
rhumerus 18.1816 45.7438 -74.4719
rradius 95.7313 -0 0
rwrist 1.28264 0 0
rhand -17.6642 -18.1563 -6.10759e-05
rfingers 0 0 0
rthumb 8.59441 -47.9611 1.33934e-05
751
root 3.94204 16.2474 15.2061 -163.095 0.35264 -171.262
lfemur -36.7023 7.35905 -18.5252
ltibia 51.9937 -0 0
lfoot -31.6359 9.96588 -0.0152817
ltoes 6.31122 -0 0
rfemur -27.2089 -32.9329 15.8238
rtibia 99.763 -0 0
rfoot 13.2361 0.480817 0.0214823
rtoes 16.7676 -0 0
lowerback 3.07785 6.12581 -3.12132
upperback -1.05981 7.99289 -2.02288
thorax -2.94449 4.02249 -0.809717
lowerneck -6.07948 -8.75459 -1.71171
upperneck -2.03613 -11.7353 6.14182
head 0.875916 -5.86359 1.86056
lclavicle 0 0 0
lhumerus -52.1422 -5.32499 81.436
lradius 50.962 -0 0
lwrist 13.7938 0 0
lhand -29.5601 -4.97729 -0.00515426
lfingers 0 0 0
lthumb -2.89259 24.9825 -0.00496128
rclavicle 0 0 0
rhumerus 15.3041 47.0851 -76.5372
rradius 94.663 -0 0
rwrist 1.72773 0 0
rhand -17.5025 -18.1621 -0.000134759
rfingers 0 0 0
rthumb 8.75043 -47.9598 2.95514e-05
752
root 3.87604 16.1647 15.3675 -163.137 3.90705 -171.185
lfemur -37.5672 9.34634 -19.3403
ltibia 53.1884 -0 0
lfoot -31.8157 10.8445 -0.0230066
ltoes 7.35279 -0 0
rfemur -26.5281 -32.8117 16.7928
rtibia 97.4103 -0 0
rfoot 13.0743 -0.892053 0.0323468
rtoes 17.397 -0 0
lowerback 3.1203 6.01222 -3.2298
upperback -1.01062 7.84622 -2.26658
thorax -2.89669 3.95499 -0.990874
lowerneck -5.95924 -8.7673 -1.76236
upperneck -1.92355 -11.7256 6.09243
head 0.890916 -5.84307 1.85677
lclavicle 0 0 0
lhumerus -51.902 -6.02886 82.7253
lradius 52.7702 -0 0
lwrist 13.6765 0 0
lhand -29.4355 -5.40516 -0.00775908
lfingers 0 0 0
lthumb -2.77227 24.556 -0.00746857
rclavicle 0 0 0
rhumerus 11.5856 48.624 -79.2713
rradius 93.3553 -0 0
rwrist 2.27257 0 0
rhand -17.3045 -18.1691 -0.000202858
rfingers 0 0 0
rthumb 8.94143 -47.9582 4.44848e-05
753
root 3.81026 16.0949 15.5186 -163.179 7.88706 -171.101
lfemur -38.5764 11.5565 -20.2955
ltibia 54.5261 -0 0
lfoot -32.0172 11.8282 -0.0283825
ltoes 8.51905 -0 0
rfemur -25.764 -32.6875 17.8783
rtibia 94.7759 -0 0
rfoot 12.893 -2.42931 0.0399095
rtoes 18.1019 -0 0
lowerback 3.16807 5.88512 -3.35133
upperback -0.95481 7.68223 -2.53951
thorax -2.84292 3.8796 -1.19377
lowerneck -5.8246 -8.7814 -1.8191
upperneck -1.79751 -11.7146 6.03715
head 0.90771 -5.82009 1.85253
lclavicle 0 0 0
lhumerus -51.6516 -6.82314 84.1674
lradius 54.7947 -0 0
lwrist 13.5452 0 0
lhand -29.296 -5.88426 -0.00957154
lfingers 0 0 0
lthumb -2.63753 24.0785 -0.00921317
rclavicle 0 0 0
rhumerus 7.15705 50.1971 -82.6088
rradius 91.8909 -0 0
rwrist 2.88265 0 0
rhand -17.0829 -18.177 -0.00025024
rfingers 0 0 0
rthumb 9.15529 -47.9564 5.48752e-05
754
root 3.74672 16.0372 15.6571 -163.218 12.0674 -171.015
lfemur -39.6865 13.8592 -21.3506
ltibia 55.9311 -0 0
lfoot -32.2289 12.8615 -0.0303029
ltoes 9.744 -0 0
rfemur -24.9597 -32.5701 19.0189
rtibia 92.009 -0 0
rfoot 12.7024 -4.04393 0.0426115
rtoes 18.8421 -0 0
lowerback 3.21853 5.75174 -3.47907
upperback -0.89537 7.51028 -2.82624
thorax -2.78616 3.80061 -1.40693
lowerneck -5.68316 -8.79607 -1.87874
upperneck -1.66515 -11.7029 5.97911
head 0.925346 -5.79596 1.84809
lclavicle 0 0 0
lhumerus -51.41 -7.66385 85.6811
lradius 56.9212 -0 0
lwrist 13.4072 0 0
lhand -29.1494 -6.38747 -0.010219
lfingers 0 0 0
lthumb -2.49599 23.577 -0.00983634
rclavicle 0 0 0
rhumerus 2.20125 51.6574 -86.4296
rradius 90.353 -0 0
rwrist 3.52342 0 0
rhand -16.8501 -18.1853 -0.000267164
rfingers 0 0 0
rthumb 9.37991 -47.9545 5.85866e-05
755
root 3.68744 15.9908 15.7807 -163.25 16.2227 -170.931
lfemur -40.8453 16.1275 -22.4566
ltibia 57.3277 -0 0
lfoot -32.4393 13.8886 -0.0284281
ltoes 10.9616 -0 0
rfemur -24.1586 -32.4669 20.1531
rtibia 89.2586 -0 0
rfoot 12.5129 -5.64888 0.0399736
rtoes 19.578 -0 0
lowerback 3.26897 5.61927 -3.60613
upperback -0.83545 7.33965 -3.11131
thorax -2.72945 3.7223 -1.61887
lowerneck -5.54255 -8.8105 -1.93806
upperneck -1.53359 -11.6912 5.92146
head 0.942874 -5.77197 1.84368
lclavicle 0 0 0
lhumerus -51.1917 -8.50551 87.1853
lradius 59.0349 -0 0
lwrist 13.2701 0 0
lhand -29.0038 -6.88767 -0.00958691
lfingers 0 0 0
lthumb -2.35531 23.0784 -0.00922796
rclavicle 0 0 0
rhumerus -3.02512 52.8907 -90.537
rradius 88.8242 -0 0
rwrist 4.16035 0 0
rhand -16.6187 -18.1935 -0.000250641
rfingers 0 0 0
rthumb 9.60318 -47.9526 5.49633e-05
756
root 3.63443 15.9547 15.887 -163.275 20.1278 -170.853
lfemur -41.9891 18.2385 -23.552
ltibia 58.6402 -0 0
lfoot -32.637 14.8539 -0.0232284
ltoes 12.1059 -0 0
rfemur -23.4044 -32.382 21.2193
rtibia 86.6739 -0 0
rfoot 12.335 -7.15714 0.0326587
rtoes 20.2695 -0 0
lowerback 3.31663 5.49488 -3.72562
upperback -0.778381 7.17958 -3.37928
thorax -2.6759 3.64891 -1.8181
lowerneck -5.41039 -8.82394 -1.99385
upperneck -1.40998 -11.6801 5.8673
head 0.959344 -5.74942 1.83954
lclavicle 0 0 0
lhumerus -51.0065 -9.30138 88.599
lradius 61.0213 -0 0
lwrist 13.1412 0 0
lhand -28.8669 -7.35773 -0.00783385
lfingers 0 0 0
lthumb -2.22311 22.6099 -0.00754053
rclavicle 0 0 0
rhumerus -8.18729 53.8311 -94.6543
rradius 87.3875 -0 0
rwrist 4.75891 0 0
rhand -16.4012 -18.2012 -0.000204812
rfingers 0 0 0
rthumb 9.81301 -47.9509 4.49134e-05
757
root 3.58969 15.9281 15.9738 -163.293 23.5572 -170.783
lfemur -43.0409 20.0744 -24.5624
ltibia 59.7928 -0 0
lfoot -32.8106 15.7015 -0.015916
ltoes 13.1108 -0 0
rfemur -22.7413 -32.3173 22.1559
rtibia 84.4041 -0 0
rfoot 12.1789 -8.48167 0.0223742
rtoes 20.8768 -0 0
lowerback 3.35869 5.38572 -3.83061
upperback -0.727657 7.03921 -3.61467
thorax -2.62867 3.5846 -1.99311
lowerneck -5.29431 -8.83564 -2.04286
upperneck -1.30143 -11.6702 5.81977
head 0.973805 -5.72962 1.83591
lclavicle 0 0 0
lhumerus -50.86 -10.0039 89.8412
lradius 62.7657 -0 0
lwrist 13.028 0 0
lhand -28.7467 -7.77053 -0.00536815
lfingers 0 0 0
lthumb -2.10703 22.1985 -0.00516716
rclavicle 0 0 0
rhumerus -12.8927 54.4682 -98.4462
rradius 86.1258 -0 0
rwrist 5.28457 0 0
rhand -16.2103 -18.208 -0.000140351
rfingers 0 0 0
rthumb 9.99728 -47.9493 3.07776e-05
758
root 3.55525 15.9102 16.0386 -163.304 26.2858 -170.728
lfemur -43.9116 21.5221 -25.4008
ltibia 60.7098 -0 0
lfoot -32.9485 16.3759 -0.00826488
ltoes 13.9103 -0 0
rfemur -22.2131 -32.2723 22.9012
rtibia 82.5981 -0 0
rfoot 12.055 -9.53547 0.0116167
rtoes 21.36 -0 0
lowerback 3.39229 5.29892 -3.9142
upperback -0.686896 6.92769 -3.80199
thorax -2.59095 3.53355 -2.13237
lowerneck -5.20194 -8.84487 -2.08188
upperneck -1.21508 -11.6623 5.78196
head 0.98531 -5.71387 1.83303
lclavicle 0 0 0
lhumerus -50.7543 -10.5649 90.8302
lradius 64.1536 -0 0
lwrist 12.938 0 0
lhand -28.6511 -8.09897 -0.00278782
lfingers 0 0 0
lthumb -2.01468 21.8711 -0.00268344
rclavicle 0 0 0
rhumerus -16.7285 54.842 -101.557
rradius 85.1219 -0 0
rwrist 5.7028 0 0
rhand -16.0583 -18.2134 -7.28894e-05
rfingers 0 0 0
rthumb 10.1439 -47.9481 1.5984e-05
